<svg width="202" height="32" viewBox="0 0 202 32" fill="none" xmlns="http://www.w3.org/2000/svg">
<rect y="0.5" width="98" height="31" fill="#ED1D24"/>
<path d="M4.33594 26.5V6.90001H8.81594L10.4399 16.98L12.0359 6.90001H16.5999V26.528H12.9599V17.064L11.3639 26.5H9.48794L7.89194 17.148V26.5H4.33594Z" fill="#FAFAFA"/>
<path d="M24.4988 6.90001L27.4668 26.5H23.9108L23.5188 23.476H20.7748L20.3548 26.5H16.8548L19.7948 6.90001H24.4988ZM23.1548 20.34L22.1468 12.108L21.1948 20.34H23.1548Z" fill="#FAFAFA"/>
<path d="M31.6114 6.90001C32.2648 6.90001 32.8808 7.00268 33.4594 7.20801C34.0568 7.41334 34.5888 7.74001 35.0554 8.18801C35.5221 8.61734 35.9048 9.17734 36.2034 9.86801C36.5208 10.5587 36.7261 11.3987 36.8194 12.388C36.9501 13.6013 36.9128 14.6187 36.7074 15.44C36.5208 16.2427 36.2874 16.8867 36.0074 17.372C35.6901 17.9693 35.3074 18.436 34.8594 18.772L37.1834 26.5H33.5994L31.8914 19.92L31.1074 20.06V26.5H27.5794L27.6074 6.90001H31.6114ZM31.1074 16.588C31.5368 16.5507 31.8914 16.448 32.1714 16.28C32.4514 16.0933 32.6848 15.86 32.8714 15.58C33.0581 15.3 33.1888 14.9827 33.2634 14.628C33.3381 14.2733 33.3754 13.9093 33.3754 13.536C33.3754 13.144 33.3381 12.7613 33.2634 12.388C33.1888 11.996 33.0674 11.6507 32.8994 11.352C32.7314 11.0347 32.4981 10.7827 32.1994 10.596C31.9194 10.4093 31.5554 10.316 31.1074 10.316V16.588Z" fill="#FAFAFA"/>
<path d="M39.8633 6.90001L41.4313 18.716L43.0833 6.90001H46.6113L43.5033 26.5H39.3593L36.2233 6.90001H39.8633Z" fill="#FAFAFA"/>
<path d="M46.8327 26.5V6.90001H53.4127V10.372H50.4447V14.796H53.4407V18.436H50.2767V22.86H53.4687V26.5H46.8327Z" fill="#FAFAFA"/>
<path d="M58.041 6.87201V22.972H61.065V26.528H54.569V6.90001L58.041 6.87201Z" fill="#FAFAFA"/>
<path d="M61.9252 16.7C61.9252 15.2253 62.0558 13.8907 62.3172 12.696C62.5785 11.4827 62.9425 10.4467 63.4092 9.58801C63.8758 8.72934 64.4452 8.06668 65.1172 7.60001C65.7892 7.13334 66.5265 6.90001 67.3292 6.90001C68.1318 6.90001 68.8598 7.13334 69.5132 7.60001C70.1852 8.06668 70.7545 8.72934 71.2212 9.58801C71.6878 10.4467 72.0518 11.4827 72.3132 12.696C72.5745 13.8907 72.7052 15.2253 72.7052 16.7C72.7052 18.1747 72.5745 19.5187 72.3132 20.732C72.0518 21.9267 71.6878 22.9533 71.2212 23.812C70.7545 24.6707 70.1852 25.3333 69.5132 25.8C68.8598 26.2667 68.1318 26.5 67.3292 26.5C66.5265 26.5 65.7892 26.2667 65.1172 25.8C64.4452 25.3333 63.8758 24.6707 63.4092 23.812C62.9425 22.9533 62.5785 21.9267 62.3172 20.732C62.0558 19.5187 61.9252 18.1747 61.9252 16.7ZM65.3972 16.756C65.3972 17.6893 65.4438 18.5387 65.5372 19.304C65.6305 20.0693 65.7612 20.732 65.9292 21.292C66.0972 21.8333 66.2932 22.2533 66.5172 22.552C66.7598 22.8507 67.0212 23 67.3012 23C67.5812 23 67.8332 22.8507 68.0572 22.552C68.2998 22.2533 68.4958 21.8333 68.6452 21.292C68.8132 20.732 68.9438 20.0693 69.0372 19.304C69.1305 18.5387 69.1772 17.6893 69.1772 16.756C69.1772 15.8227 69.1305 14.9733 69.0372 14.208C68.9438 13.424 68.8132 12.7613 68.6452 12.22C68.4958 11.6787 68.2998 11.2587 68.0572 10.96C67.8332 10.6613 67.5812 10.512 67.3012 10.512C67.0212 10.512 66.7598 10.6613 66.5172 10.96C66.2932 11.2587 66.0972 11.6787 65.9292 12.22C65.7612 12.7613 65.6305 13.424 65.5372 14.208C65.4438 14.9733 65.3972 15.8227 65.3972 16.756Z" fill="#FAFAFA"/>
<path d="M84.2409 16.812C84.2409 17.4653 84.2316 18.1653 84.2129 18.912C84.2129 19.64 84.1663 20.368 84.0729 21.096C83.9983 21.8053 83.8583 22.4867 83.6529 23.14C83.4476 23.7933 83.1396 24.372 82.7289 24.876C82.3369 25.3613 81.8236 25.7533 81.1889 26.052C80.5543 26.3507 79.7703 26.5 78.8369 26.5C77.5489 26.5 76.5409 26.276 75.8129 25.828C75.1036 25.38 74.5716 24.7453 74.2169 23.924C73.8809 23.084 73.6756 22.076 73.6009 20.9C73.5449 19.724 73.5169 18.4173 73.5169 16.98V6.87201H76.9609V16.812C76.9796 17.9693 77.0543 18.996 77.1849 19.892C77.2409 20.284 77.3156 20.6667 77.4089 21.04C77.5023 21.3947 77.6143 21.7213 77.7449 22.02C77.8943 22.3 78.0529 22.5333 78.2209 22.72C78.4076 22.888 78.6129 22.972 78.8369 22.972C79.1169 22.972 79.3503 22.888 79.5369 22.72C79.7423 22.5333 79.9103 22.3 80.0409 22.02C80.1903 21.7213 80.3023 21.3947 80.3769 21.04C80.4703 20.6667 80.5449 20.284 80.6009 19.892C80.7129 18.996 80.7596 17.9693 80.7409 16.812V6.90001H84.2409V16.812Z" fill="#FAFAFA"/>
<path d="M93.176 6.90001C93.1947 6.90001 93.204 7.08668 93.204 7.46001C93.204 7.81468 93.204 8.20668 93.204 8.63601C93.204 9.15868 93.1947 9.74668 93.176 10.4C92.5973 10.4 92.0093 10.456 91.412 10.568C90.8333 10.6613 90.3107 10.82 89.844 11.044C89.396 11.2493 89.0227 11.5013 88.724 11.8C88.444 12.0987 88.304 12.444 88.304 12.836C88.304 13.172 88.4253 13.4613 88.668 13.704C88.9293 13.9467 89.2373 14.1893 89.592 14.432C89.9653 14.6747 90.3667 14.9453 90.796 15.244C91.244 15.524 91.6453 15.86 92 16.252C92.3733 16.644 92.6813 17.12 92.924 17.68C93.1853 18.24 93.316 18.9213 93.316 19.724C93.316 20.9187 93.092 21.9453 92.644 22.804C92.2147 23.644 91.6173 24.344 90.852 24.904C90.1053 25.4453 89.228 25.8467 88.22 26.108C87.212 26.3693 86.148 26.5 85.028 26.5V23C85.364 23 85.8027 22.944 86.344 22.832C86.8853 22.72 87.408 22.5333 87.912 22.272C88.4347 22.0107 88.8827 21.6653 89.256 21.236C89.6293 20.8067 89.8067 20.2747 89.788 19.64C89.788 19.3227 89.6667 19.052 89.424 18.828C89.1813 18.5853 88.8733 18.352 88.5 18.128C88.1453 17.8853 87.7627 17.6333 87.352 17.372C86.9413 17.092 86.5493 16.756 86.176 16.364C85.8213 15.9533 85.5227 15.468 85.28 14.908C85.056 14.348 84.944 13.6573 84.944 12.836C84.944 11.9773 85.1867 11.184 85.672 10.456C86.176 9.72801 86.82 9.10268 87.604 8.58001C88.388 8.05734 89.2653 7.64668 90.236 7.34801C91.2253 7.04934 92.2053 6.90001 93.176 6.90001Z" fill="#FAFAFA"/>
<path d="M109.784 6.90001L112.752 26.5H109.196L108.804 23.476H106.06L105.64 26.5H102.14L105.08 6.90001H109.784ZM108.44 20.34L107.432 12.108L106.48 20.34H108.44Z" fill="#FAFAFA"/>
<path d="M116.197 6.87201C117.093 6.87201 117.867 7.04001 118.521 7.37601C119.174 7.71201 119.734 8.16001 120.201 8.72001C120.667 9.28001 121.05 9.93334 121.349 10.68C121.647 11.408 121.881 12.164 122.049 12.948C122.217 13.732 122.329 14.5253 122.385 15.328C122.459 16.112 122.497 16.84 122.497 17.512C122.497 19.0053 122.338 20.2653 122.021 21.292C121.722 22.3187 121.33 23.1587 120.845 23.812C120.378 24.4653 119.883 24.9787 119.361 25.352C118.427 26.0053 117.373 26.3787 116.197 26.472H112.753L112.809 6.87201H116.197ZM116.253 23.504C116.253 23.504 116.318 23.4947 116.449 23.476C116.579 23.4573 116.747 23.392 116.953 23.28C117.177 23.1493 117.41 22.9533 117.653 22.692C117.914 22.4307 118.147 22.0573 118.353 21.572C118.577 21.0867 118.754 20.48 118.885 19.752C119.034 19.0053 119.109 18.0907 119.109 17.008C119.109 16.728 119.099 16.364 119.081 15.916C119.062 15.468 119.015 14.992 118.941 14.488C118.885 13.984 118.791 13.48 118.661 12.976C118.53 12.472 118.353 12.0147 118.129 11.604C117.923 11.1933 117.662 10.8667 117.345 10.624C117.027 10.3627 116.645 10.232 116.197 10.232L116.253 23.504Z" fill="#FAFAFA"/>
<path d="M127.035 6.90001L128.603 18.716L130.255 6.90001H133.783L130.675 26.5H126.531L123.395 6.90001H127.035Z" fill="#FAFAFA"/>
<path d="M134.005 26.5V6.90001H140.585V10.372H137.617V14.796H140.613V18.436H137.449V22.86H140.641V26.5H134.005Z" fill="#FAFAFA"/>
<path d="M141.713 26.5V6.90001H145.213L148.209 17.036V6.90001H151.793V26.5H148.209L145.185 17.148V26.528L141.713 26.5Z" fill="#FAFAFA"/>
<path d="M163.601 6.90001V10.456H160.073V26.5H156.629V10.456H152.849V6.90001H163.601Z" fill="#FAFAFA"/>
<path d="M175.788 16.812C175.788 17.4653 175.779 18.1653 175.76 18.912C175.76 19.64 175.713 20.368 175.62 21.096C175.545 21.8053 175.405 22.4867 175.2 23.14C174.995 23.7933 174.687 24.372 174.276 24.876C173.884 25.3613 173.371 25.7533 172.736 26.052C172.101 26.3507 171.317 26.5 170.384 26.5C169.096 26.5 168.088 26.276 167.36 25.828C166.651 25.38 166.119 24.7453 165.764 23.924C165.428 23.084 165.223 22.076 165.148 20.9C165.092 19.724 165.064 18.4173 165.064 16.98V6.87201H168.508V16.812C168.527 17.9693 168.601 18.996 168.732 19.892C168.788 20.284 168.863 20.6667 168.956 21.04C169.049 21.3947 169.161 21.7213 169.292 22.02C169.441 22.3 169.6 22.5333 169.768 22.72C169.955 22.888 170.16 22.972 170.384 22.972C170.664 22.972 170.897 22.888 171.084 22.72C171.289 22.5333 171.457 22.3 171.588 22.02C171.737 21.7213 171.849 21.3947 171.924 21.04C172.017 20.6667 172.092 20.284 172.148 19.892C172.26 18.996 172.307 17.9693 172.288 16.812V6.90001H175.788V16.812Z" fill="#FAFAFA"/>
<path d="M180.635 6.90001C181.288 6.90001 181.904 7.00268 182.483 7.20801C183.08 7.41334 183.612 7.74001 184.079 8.18801C184.546 8.61734 184.928 9.17734 185.227 9.86801C185.544 10.5587 185.75 11.3987 185.843 12.388C185.974 13.6013 185.936 14.6187 185.731 15.44C185.544 16.2427 185.311 16.8867 185.031 17.372C184.714 17.9693 184.331 18.436 183.883 18.772L186.207 26.5H182.623L180.915 19.92L180.131 20.06V26.5H176.603L176.631 6.90001H180.635ZM180.131 16.588C180.56 16.5507 180.915 16.448 181.195 16.28C181.475 16.0933 181.708 15.86 181.895 15.58C182.082 15.3 182.212 14.9827 182.287 14.628C182.362 14.2733 182.399 13.9093 182.399 13.536C182.399 13.144 182.362 12.7613 182.287 12.388C182.212 11.996 182.091 11.6507 181.923 11.352C181.755 11.0347 181.522 10.7827 181.223 10.596C180.943 10.4093 180.579 10.316 180.131 10.316V16.588Z" fill="#FAFAFA"/>
<path d="M185.247 26.5V6.90001H191.827V10.372H188.859V14.796H191.855V18.436H188.691V22.86H191.883V26.5H185.247Z" fill="#FAFAFA"/>
<path d="M201.047 6.90001C201.066 6.90001 201.075 7.08668 201.075 7.46001C201.075 7.81468 201.075 8.20668 201.075 8.63601C201.075 9.15868 201.066 9.74668 201.047 10.4C200.469 10.4 199.881 10.456 199.283 10.568C198.705 10.6613 198.182 10.82 197.715 11.044C197.267 11.2493 196.894 11.5013 196.595 11.8C196.315 12.0987 196.175 12.444 196.175 12.836C196.175 13.172 196.297 13.4613 196.539 13.704C196.801 13.9467 197.109 14.1893 197.463 14.432C197.837 14.6747 198.238 14.9453 198.667 15.244C199.115 15.524 199.517 15.86 199.871 16.252C200.245 16.644 200.553 17.12 200.795 17.68C201.057 18.24 201.187 18.9213 201.187 19.724C201.187 20.9187 200.963 21.9453 200.515 22.804C200.086 23.644 199.489 24.344 198.723 24.904C197.977 25.4453 197.099 25.8467 196.091 26.108C195.083 26.3693 194.019 26.5 192.899 26.5V23C193.235 23 193.674 22.944 194.215 22.832C194.757 22.72 195.279 22.5333 195.783 22.272C196.306 22.0107 196.754 21.6653 197.127 21.236C197.501 20.8067 197.678 20.2747 197.659 19.64C197.659 19.3227 197.538 19.052 197.295 18.828C197.053 18.5853 196.745 18.352 196.371 18.128C196.017 17.8853 195.634 17.6333 195.223 17.372C194.813 17.092 194.421 16.756 194.047 16.364C193.693 15.9533 193.394 15.468 193.151 14.908C192.927 14.348 192.815 13.6573 192.815 12.836C192.815 11.9773 193.058 11.184 193.543 10.456C194.047 9.72801 194.691 9.10268 195.475 8.58001C196.259 8.05734 197.137 7.64668 198.107 7.34801C199.097 7.04934 200.077 6.90001 201.047 6.90001Z" fill="#FAFAFA"/>
<path d="M104 1.5H200" stroke="#FAFAFA"/>
<path d="M104 31.5H200" stroke="#FAFAFA"/>
</svg>
